<svg width="123.5" height="121" xmlns="http://www.w3.org/2000/svg">

 <g label="Layer 1" id="imagebot_2">
  <g label="Layer 1" transform="translate(0, 1) matrix(0.47964, 0, 0, 0.48559, -21.4755, -27.9964)" id="imagebot_3">
   <rect stroke="#007a00" stroke-width="7.8913" fill="none" x="48.944" y="55.595" width="249.03" height="249.25" ry="18.045" id="imagebot_19"/>
   <path fill="#008000" transform="matrix(.78879 0 0 .78947 -47.401 -114.31)" d="M374.29,366.65C374.29,418.723 332.077,460.936 280.004,460.936S185.718,418.723 185.718,366.65S227.931,272.364 280.004,272.364S374.29,314.577 374.29,366.65z" id="imagebot_18"/>
   <g fill="#008000" transform="matrix(.99957 0 0 1.0004 -3.6971 -5.1759)" id="imagebot_14">
    <path fill="#008000" d="M142.53,294.57C141.3221,292.0069 140.1289,289.3407 138.9505,286.5713C137.7721,283.802 136.6525,281.0621 135.5919,278.3517S133.5444,273.0487 132.6311,270.574C131.74727,268.0993 130.9813,265.8897 130.3331,263.9453L137.934,263.9453C138.52321,265.713 139.1566,267.6279 139.8342,269.6902C140.54125,271.723 141.2483,273.7558 141.9554,275.7886C142.69191,277.8214 143.399,279.7658 144.0766,281.6219C144.75419,283.4779 145.3876,285.0836 145.9768,286.4388C146.53655,285.0836 147.1552,283.478 147.8328,281.6219C148.53984,279.7659 149.2469,277.8215 149.954,275.7886C150.6905,273.7558 151.3976,271.723 152.0752,269.6902C152.78224,267.628 153.4304,265.713 154.0196,263.9453L161.3554,263.9453C160.67777,265.8897 159.8971,268.0993 159.0133,270.574C158.12944,273.0488 157.1572,275.6413 156.0967,278.3517C155.0361,281.0621 153.9166,283.802 152.7381,286.5713S150.3665,292.0069 149.1586,294.57L142.5299,294.57" id="imagebot_17"/>
    <path fill="#008000" d="M165.36,294.57L165.36,263.945L186.042,263.945L186.042,269.7341L172.254,269.7341L172.254,275.7441L184.495,275.7441L184.495,281.4006L172.254,281.4006L172.254,288.7806L187.058,288.7806L187.058,294.5697L165.36,294.5697" id="imagebot_16"/>
    <path fill="#008000" d="M207.06,269.24C203.8487,269.24002 201.5213,270.13858 200.0778,271.9357C198.6637,273.7034 197.9566,276.1339 197.9566,279.2273C197.95659,280.7298 198.13336,282.0998 198.4869,283.3371C198.84042,284.545 199.37072,285.5909 200.0778,286.4747C200.78485,287.35854 201.6687,288.0509 202.7293,288.5517C203.7899,289.02308 205.0272,289.25877 206.4414,289.25876C207.20737,289.25877 207.8555,289.24406 208.3858,289.21456C208.94554,289.18516 209.4316,289.12616 209.8441,289.0378L209.8441,278.3878L216.738,278.3878L216.738,293.5458C215.91306,293.86988 214.5873,294.20868 212.7608,294.5622C210.9342,294.94519 208.6804,295.13669 205.9995,295.13669C203.7015,295.13669 201.6098,294.78316 199.7243,294.07609C197.8683,293.36903 196.2774,292.33789 194.9516,290.98269S192.5947,287.96299 191.8582,285.98909C191.15113,284.01519 190.7976,281.76149 190.7976,279.22779C190.7976,276.66469 191.19533,274.39619 191.9908,272.42229C192.78625,270.44839 193.8763,268.78389 195.261,267.42869C196.6457,266.04409 198.266,264.99819 200.1221,264.29109C202.0076,263.58406 204.0109,263.23049 206.1321,263.23049C207.5757,263.23052 208.8719,263.33363 210.0209,263.53983C211.1993,263.71663 212.201,263.93758 213.0259,264.2027C213.88025,264.43842 214.5726,264.68884 215.1029,264.95396C215.66263,265.21913 216.06036,265.42536 216.2961,265.57264L214.3075,271.09654C213.36472,270.59573 212.2747,270.16854 211.0373,269.81494C209.8294,269.43197 208.5036,269.24047 207.0601,269.24045" id="imagebot_15"/>
   </g>
   <rect stroke="#d40000" stroke-width="7.8913" fill="none" x="314.88" y="55.595" width="249.03" height="249.25" ry="18.045" id="imagebot_13"/>
   <path fill="#d40000" transform="matrix(.78879 0 0 .78947 218.53 -114.31)" d="M374.29,366.65C374.29,418.723 332.077,460.936 280.004,460.936S185.718,418.723 185.718,366.65S227.931,272.364 280.004,272.364S374.29,314.577 374.29,366.65z" id="imagebot_12"/>
   <g fill="#d40000" transform="matrix(.78879 0 0 .78947 254.07 -279.75)" id="imagebot_4">
    <path fill="#d40000" d="M132.28,720.93C129.7786,716.4873 127.072,712.1007 124.16,707.77C121.248,703.4394 118.1493,699.3514 114.864,695.506L114.864,720.93L106.24,720.93L106.24,682.122L113.352,682.122C114.584,683.354 115.9466,684.866 117.44,686.658C118.9333,688.45 120.4453,690.3727 121.976,692.426C123.544,694.442 125.0933,696.5514 126.624,698.754C128.1546,700.9194 129.592,703.01 130.936,705.026L130.936,682.122L139.616,682.122L139.616,720.93L132.28,720.93" id="imagebot_11"/>
    <path fill="#d40000" d="M155.91,701.5C155.90999,703.404 156.13399,705.1214 156.582,706.652C157.06732,708.1827 157.7393,709.508 158.598,710.628C159.49399,711.7107 160.5766,712.5507 161.846,713.148C163.1153,713.74534 164.5713,714.04401 166.214,714.044C167.8193,714.04401 169.2566,713.74534 170.526,713.148C171.8326,712.55068 172.9153,711.7107 173.774,710.628C174.66997,709.508 175.342,708.1827 175.79,706.652C176.2753,705.1214 176.51797,703.404 176.518,701.5C176.51797,699.596 176.2753,697.8787 175.79,696.348C175.34197,694.78 174.67,693.4547 173.774,692.372C172.91531,691.252 171.8326,690.3934 170.526,689.796C169.2566,689.1987 167.8193,688.90003 166.214,688.9C164.5713,688.90003 163.1153,689.21737 161.846,689.852C160.5766,690.44937 159.494,691.308 158.598,692.428C157.73932,693.5107 157.0673,694.836 156.582,696.404C156.13399,697.9347 155.90999,699.6334 155.91,701.5M185.534,701.5C185.53396,704.8227 185.02996,707.7534 184.022,710.292C183.0513,712.7933 181.7073,714.9027 179.99,716.62C178.2726,718.3 176.2193,719.5693 173.83,720.428C171.478,721.28667 168.9393,721.716 166.214,721.716C163.5633,721.716 161.062,721.28667 158.71,720.428C156.358,719.56934 154.3047,718.3 152.55,716.62C150.7953,714.9027 149.414,712.7933 148.406,710.292C147.398,707.7534 146.894,704.8227 146.894,701.5C146.894,698.1774 147.41666,695.2654 148.462,692.764C149.5073,690.2254 150.9073,688.0974 152.662,686.38C154.454,684.6627 156.5073,683.3747 158.822,682.516C161.174,681.65738 163.638,681.228 166.214,681.228C168.8646,681.22804 171.366,681.65738 173.718,682.516C176.07,683.37471 178.1233,684.6627 179.878,686.38C181.6326,688.0974 183.014,690.2254 184.022,692.764C185.03,695.2654 185.534,698.1774 185.534,701.5" id="imagebot_10"/>
    <path fill="#d40000" d="M218.8,720.93C216.2986,716.4873 213.592,712.1007 210.68,707.77C207.768,703.4394 204.6693,699.3514 201.384,695.506L201.384,720.93L192.76,720.93L192.76,682.122L199.872,682.122C201.104,683.354 202.4666,684.866 203.96,686.658C205.4533,688.45 206.9653,690.3727 208.496,692.426C210.064,694.442 211.6133,696.5514 213.144,698.754C214.6746,700.9194 216.112,703.01 217.456,705.026L217.456,682.122L226.136,682.122L226.136,720.93L218.8,720.93" id="imagebot_9"/>
    <path fill="#d40000" d="M232.01,700.44L248.25,700.44L248.25,708L232.01,708L232.01,700.44" id="imagebot_8"/>
    <path fill="#d40000" d="M264.01,720.93C262.4793,717.682 260.9673,714.3033 259.474,710.794S256.562,703.8127 255.218,700.378C253.874,696.9434 252.6233,693.658 251.466,690.522C250.346,687.386 249.3753,684.586 248.554,682.122L258.186,682.122C258.93266,684.362 259.7353,686.7887 260.594,689.402L263.282,697.13C264.21532,699.706 265.1113,702.17 265.97,704.522C266.82865,706.874 267.6313,708.9087 268.378,710.626C269.08731,708.9087 269.8713,706.874 270.73,704.522C271.62598,702.17 272.522,699.706 273.418,697.13C274.35131,694.554 275.2473,691.978 276.106,689.402C277.00197,686.7887 277.8233,684.362 278.57,682.122L287.866,682.122C287.0073,684.586 286.018,687.386 284.898,690.522S282.546,696.9434 281.202,700.378C279.858,703.8127 278.4393,707.2847 276.946,710.794C275.4526,714.3033 273.9406,717.682 272.41,720.93L264.01,720.93" id="imagebot_7"/>
    <path fill="#d40000" d="M292.95,720.93L292.95,682.122L319.158,682.122L319.158,689.458L301.686,689.458L301.686,697.074L317.198,697.074L317.198,704.242L301.686,704.242L301.686,713.594L320.446,713.594L320.446,720.93L292.95,720.93" id="imagebot_6"/>
    <path fill="#d40000" d="M345.78,688.85C341.7106,688.85003 338.7613,689.9887 336.932,692.266C335.14,694.506 334.244,697.586 334.244,701.506C334.24399,703.41 334.46799,705.146 334.916,706.714C335.36399,708.2447 336.036,709.57 336.932,710.69C337.82799,711.81 338.948,712.6873 340.292,713.322C341.636,713.91934 343.204,714.21801 344.996,714.218C345.96664,714.21801 346.788,714.1993 347.46,714.162C348.16931,714.1247 348.7853,714.05001 349.308,713.938L349.308,700.442L358.044,700.442L358.044,719.65C356.9986,720.06067 355.3186,720.49 353.004,720.938C350.6893,721.42334 347.8333,721.666 344.436,721.666C341.524,721.666 338.8733,721.218 336.484,720.322C334.132,719.426 332.116,718.1193 330.436,716.402S327.4493,712.5753 326.516,710.074C325.62,707.5727 325.172,704.7167 325.172,701.506C325.172,698.258 325.676,695.3834 326.684,692.882C327.692,690.3807 329.0733,688.2714 330.828,686.554C332.5827,684.7994 334.636,683.474 336.988,682.578C339.3773,681.68204 341.916,681.234 344.604,681.234C346.4333,681.23404 348.076,681.36471 349.532,681.626C351.0253,681.85004 352.2946,682.13004 353.34,682.466C354.4226,682.76471 355.3,683.08204 355.972,683.418C356.6813,683.75404 357.1853,684.01537 357.484,684.202L354.964,691.202C353.7693,690.56737 352.388,690.026 350.82,689.578C349.2893,689.0927 347.6093,688.85003 345.78,688.85" id="imagebot_5"/>
   </g>
  </g>
  <title>Layer 1</title>
 </g>
 <metadata>image/svg+xmlOpenclipartVeg_Non-veg icon2011-03-13T16:19:17Vegetarian and non-vegetarian symbols for food packagehttps://openclipart.org/detail/127159/veg_non-veg-icon-by-gsagri04gsagri04Vegetarianfoodfreegreeniconnon-Vegetarianopenclipartpackageredsymbol</metadata>
</svg>